# xmcd
#
# Track frame offsets:
#	150
#	11937
#	23375
#	36442
#	49617
#	62660
#	75050
#	88552
#	101675
#	113265
#
# Disc length: 1665 seconds
#
# Revision: 2
# Processed by: cddbd v1.5.2PL0 Copyright (c) Steve Scherf et al.
# Submitted via: audiograbber 1.83.01
#
DISCID=64067f0a
DTITLE=Various Artist - Pure Country
DYEAR=1997
DGENRE=Country
TTITLE0=Roy Acuff and His Smokey Mountain Boys - Wabash Cannonball
TTITLE1=Bob Willis and His Texas Playboys - New Spanish Two Step
TTITLE2=Red Foley - Smoke on the Water
TTITLE3=Tex Williams - Smoke, Smoke, Smoke That Cigarette
TTITLE4=Eddy Arnold - Anytime
TTITLE5=Al Dexter and His Troopers - Guitar Polka
TTITLE6=Merle Travis - So Round, So Firm, So Fully Packed
TTITLE7=Ernest Tubb - Slipping Around
TTITLE8=Gene Autry - Don't Fence Me In
TTITLE9=Cowboy Copas - Signed, Sealed and Delivered
EXTD=
EXTT0=Roy Acuff and His Smokey Mountain Boys\n
EXTT1=Bob Wills and His Texas Playboys\n
EXTT2=Red Foley\n
EXTT3=Tex Williams\n
EXTT4=Eddy Arnold\n
EXTT5=Al Dexter and His Trooper\n
EXTT6=Merle Travis\n
EXTT7=Ernest Tubb\n
EXTT8=Gene Autrey\n
EXTT9=Cowboy Copas\n
PLAYORDER=
